<?xml version="1.0" encoding="UTF-8"?><svg id="Layer_1" xmlns="http://www.w3.org/2000/svg" xmlns:xlink="http://www.w3.org/1999/xlink" viewBox="0 0 248.45 380.49"><defs><style>.cls-1{fill:url(#linear-gradient-2);}.cls-2{fill:url(#linear-gradient);}</style><linearGradient id="linear-gradient" x1="190.45" y1="380.49" x2="190.45" y2="48.04" gradientUnits="userSpaceOnUse"><stop offset="0" stop-color="#737373"/><stop offset=".03" stop-color="#73787b"/><stop offset=".17" stop-color="#7694a2"/><stop offset=".32" stop-color="#78abc3"/><stop offset=".47" stop-color="#7abcdc"/><stop offset=".63" stop-color="#7bc9ed"/><stop offset=".8" stop-color="#7cd0f8"/><stop offset=".99" stop-color="#7dd3fc"/></linearGradient><linearGradient id="linear-gradient-2" x1="58" y1="332.45" x2="58" y2="0" xlink:href="#linear-gradient"/></defs><path class="cls-2" d="M248.45,315.04c-20.63,0-38.89,2.31-47.93-6.57-10.96-10.76-9.58-29.34-10.03-42.97-2.13-64.9-.95-133.92,0-198.92.09-5.84-.15-11.71-.04-17.55l-58.01-1c.18,47.17,1.02,232.66,1.02,272.49,0,27.27,23.83,46.13,41.31,53.69,22.01,9.53,49.68,5.55,73.68,4.82v-64Z"/><path class="cls-1" d="M0,267c20.63,0,38.89,2.31,47.93-6.57,10.96-10.76,9.58-29.34,10.03-42.97,2.13-64.9.95-133.92,0-198.92-.09-5.84.15-11.71.04-17.55l58.01-1c-.18,47.17-1.02,232.66-1.02,272.49,0,27.27-23.83,46.13-41.31,53.69-22.01,9.53-49.68,5.55-73.68,4.82v-64Z"/></svg>